<svg xmlns="http://www.w3.org/2000/svg" width="32" height="32" version="1" id="food">
  <path fill="#24c4bc" d="M32 16c0 8.836-7.164 16-16 16S0 24.836 0 16 7.164 0 16 0s16 7.164 16 16z"></path>
  <path d="M17.709 31.828c.505-.054 1.026-.052 1.516-.152a15.887 15.887 0 0 0 5.72-2.408 16.083 16.083 0 0 0 2.367-1.956 15.953 15.953 0 0 0 4.363-8.088c.09-.435.083-.901.136-1.349l-8.848-8.848-.012-.01c-.108-.107-.225-.205-.338-.308-.125-.114-.246-.234-.377-.342l-.006-.006c-.241-.199-.492-.386-.751-.562l-.018-.012c-.064-.043-.134-.079-.2-.121a10.015 10.015 0 0 0-.622-.379 9.919 9.919 0 0 0-1.77-.752 9.813 9.813 0 0 0-.904-.236c-.016-.004-.031-.009-.047-.012-.18-.037-.367-.059-.55-.086a9.828 9.828 0 0 0-1.45-.119c-5.455 0-9.918 4.463-9.918 10 0 2.231.743 4.216 1.9 5.87l.414.411.018.02c.202.247.415.483.639.707l.066.066 8.672 8.672z" opacity=".25"></path>
  <path fill="#fff" d="M15.917 6.083c-5.454 0-9.917 4.462-9.917 10 0 2.231.744 4.215 1.9 5.867.249-.248 1.571-1.487 2.81-1.487.662 0 1.075.33 1.488.578.414.248.662.414 1.24.414.579 0 .661-.166.992-.414.248-.248.744-.578 1.487-.578.744 0 1.24.248 1.57.578.331.248.58.414 1.075.414.578 0 .661-.166.91-.414.247-.248.66-.578 1.321-.578.744 0 1.405.413 1.901.744.413.248.992.743 1.24.991A9.928 9.928 0 0 0 26 16.083c-.165-5.538-4.628-10-10.083-10zm.992.991c.33-.082.496.579.165.662-.826.578-1.405.413-1.735.413-.165 0-.33-.166-.33-.413 0-.166.165-.331.412-.248.496 0 .579.165 1.323-.331 0-.083.082-.083.165-.083zm-3.058 0c.33 0 .496.496.248.662-.413.247-.578.165-.909.991-.165.248-.661.166-.661-.165-.248.992-.744 1.24-.992 1.488s-.661-.248-.413-.496c.33-.248.578-.248.744-1.157 0-.083.082-.248.248-.248.165-.083.413.082.413.33.413-.909.909-1.157 1.24-1.322l.082-.083zm5.042.662c.247 0 .495.082.66.082.166 0 .249.248.249.413 0 .248-.248.331-.414.331-.413-.083-.578-.248-1.405.083a.397.397 0 0 1-.495-.166c-.083-.165.082-.413.248-.496.495-.165.826-.247 1.157-.247zM15.42 8.893h.166c.082 0 .248.082.248.247.33.992.082 1.488 0 1.819 0 .165-.248.33-.414.248-.165-.083-.247-.331-.165-.496.083-.413.248-.579 0-1.405-.165-.166-.082-.413.165-.413zm4.96.165h.082c.082 0 .165 0 .248.082.413.248.413.496 1.322.496.165 0 .33.166.33.33 0 .166-.165.332-.33.332-1.074 0-1.405-.414-1.735-.579-.248-.248-.166-.661.082-.661zm-2.315.33c.165-.082.413.083.413.248.083.166-.082.33-.248.414-.413.082-.578 0-1.157.743-.248.248-.743-.165-.495-.413.66-.826 1.157-.909 1.487-.992zm1.405.248s.083 0 0 0c.248-.082.496.166.413.414-.248.991-.744 1.24-.991 1.487-.083.165-.331.083-.496 0-.166-.165-.083-.413.082-.496.33-.33.579-.33.744-1.157l.248-.248zm-5.372.248c.248 0 .496.33.33.579-.247.413-.412.413-.33 1.322 0 .165-.082.33-.33.413a.356.356 0 0 1-.331-.33c-.083-1.075.248-1.488.413-1.736.083-.165.166-.248.248-.248zm7.769.33h.165c.992.166 1.322.58 1.57.91.166.083.166.33 0 .496-.165.082-.413.082-.496-.083-.33-.33-.33-.496-1.24-.661a.454.454 0 0 1-.412-.248c.165-.165.247-.33.413-.413zm-1.653.166h.083c.082 0 .247.083.247.165.579.827.496 1.405.496 1.736 0 .165-.165.33-.33.33a.356.356 0 0 1-.33-.33c0-.413.164-.579-.414-1.322-.083-.248 0-.496.248-.579zm-8.678.165c.083 0 .083 0 0 0 .083 0 .165 0 .248.083.91.413 1.075.992 1.24 1.322.082.166 0 .414-.165.414-.166.082-.331 0-.414-.166-.165-.413-.165-.578-.909-.991-.33-.166-.248-.579 0-.662zm-2.975.414c.248-.083.496.165.413.413-.248.992-.744 1.24-.992 1.488-.247.247-.66-.331-.413-.496.413-.33.579-.248.744-1.157l.248-.248zm2.149.909c.33 0 .496.082.66.165a.454.454 0 0 1 .249.413.454.454 0 0 1-.413.248c-.414-.082-.579-.33-1.405.083a.397.397 0 0 1-.496-.165c-.083-.166.082-.414.248-.414.496-.33.826-.33 1.157-.33zm11.983.33c.166 0 .33.083.413.166.248.413.166.578.992.991a.454.454 0 0 1 .248.414c-.083.165-.33.248-.496.165-.909-.413-1.157-.91-1.322-1.24-.165-.165 0-.413.165-.496zm-6.777.083A3.704 3.704 0 0 1 19.637 16a3.704 3.704 0 0 1-3.72 3.719A3.704 3.704 0 0 1 12.198 16a3.704 3.704 0 0 1 3.72-3.719zm5.703.165c.33-.082.496.33.33.579-.578.826-1.157.909-1.487.992a.397.397 0 0 1-.496-.166c-.083-.165.083-.413.33-.413.414-.165.579-.083 1.158-.744 0-.165.082-.248.165-.248zm-12.893.579c.083 0 .166 0 .248.082.91.414 1.075.91 1.24 1.24a.397.397 0 0 1-.165.496.397.397 0 0 1-.496-.165c-.166-.414-.166-.661-.992-1.075-.165-.082-.165-.496.165-.578zm14.546 1.157c.165 0 .248 0 .33.082.91.579.992 1.075 1.075 1.405.082.166 0 .414-.166.414-.165.082-.413 0-.413-.248-.165-.414-.082-.579-.826-1.075-.33 0-.248-.496 0-.578zm-12.562.826c.248 0 .496.248.413.413-.083.414-.248.579.083 1.405a.397.397 0 0 1-.166.496c-.165.083-.413-.082-.413-.248-.413-.909-.165-1.487-.083-1.818 0-.082 0-.248.166-.248zm-2.975.083c.082 0 .247 0 .247.083.414.247.496.413 1.405.247.166-.082.414.083.414.248 0 .166-.166.414-.33.414-.993.165-1.489-.166-1.82-.33-.164-.084-.164-.58.084-.662zm13.057.165s.083 0 0 0c.166 0 .166 0 .248.083.414.248.496.413 1.405.248.166 0 .414.082.414.248 0 .165-.083.33-.248.413-.992.165-1.488-.165-1.819-.33-.248-.083-.248-.58 0-.662zm-13.801.661s.165 0 0 0h.082c.083 0 .248.083.248.166.661.743.661 1.322.661 1.653 0 .165-.165.33-.33.413a.356.356 0 0 1-.33-.33c-.083-.497.082-.662-.497-1.323 0-.165 0-.496.166-.579zm16.694.744c.083 0 .083 0 0 0 .248 0 .496.248.413.413-.082.496-.248.579.083 1.405.082.166.082.414-.083.496-.165.083-.413.083-.496-.082.248.991-.082 1.487-.165 1.818-.083.165-.248.248-.413.165-.165-.083-.248-.248-.165-.413.165-.413.413-.496.165-1.405-.083-.165.082-.413.248-.413.082 0 .248 0 .248.082-.33-.909-.083-1.405 0-1.735 0-.166.082-.248.165-.33zm-1.322.413c.33-.082.578.248.413.496-.496.91-1.075 1.075-1.405 1.157-.165.083-.413 0-.413-.165-.083-.165 0-.33.165-.413.413-.166.578-.083 1.074-.91 0-.082.083-.165.166-.165zm-10.744.662c.248 0 .413.082.413.247.248.992-.083 1.488-.165 1.819-.083.165-.248.248-.413.165-.166-.083-.248-.248-.166-.413.166-.414.413-.496.166-1.405-.083-.166 0-.413.165-.413zm-2.48.082c.248 0 .496.165.496.33 0 .497-.082.58.496 1.323.166.083.083.33 0 .496-.165.083-.413.083-.496-.083-.66-.744-.66-1.322-.66-1.735-.083-.166 0-.33.164-.33zm9.835 1.24c.083 0 .083 0 0 0h.248c.413.165.496.413 1.405.165.165 0 .33.083.413.248.083.165-.082.33-.248.413-.991.248-1.487-.082-1.818-.165-.248-.083-.248-.579 0-.661zm-8.264 1.983c-.91 0-2.314 1.24-2.397 1.323 1.818 2.231 4.546 3.553 7.686 3.553 2.975 0 5.62-1.322 7.438-3.388-.165-.165-.744-.661-1.157-.91-.496-.33-1.074-.578-1.57-.578s-.579.083-.91.414c-.247.247-.66.578-1.404.578-.744 0-1.157-.33-1.488-.578-.33-.248-.578-.414-1.24-.414-.578 0-.743.166-.991.414-.248.247-.661.578-1.405.578s-1.157-.33-1.57-.578a1.369 1.369 0 0 0-.992-.414z"></path>
</svg>
