<svg xmlns="http://www.w3.org/2000/svg" width="32" height="32" version="1" id="food">
  <path fill="#3a6c87" d="M32 16c0 8.836-7.164 16-16 16S0 24.836 0 16 7.164 0 16 0s16 7.164 16 16z"></path>
  <path d="M19.701 31.527c.866-.206 1.722-.444 2.528-.785a15.953 15.953 0 0 0 5.084-3.43 15.953 15.953 0 0 0 4.363-8.088c.17-.832.224-1.703.26-2.578L22.488 7.2a.346.346 0 0 0-.236-.107H20.197c-.085 0-.172.086-.258.172l-2.226 3.254H9.748c-.171 0-.344.172-.344.343v1.97c0 .085.043.171.108.235l1.968 1.97 1.436 9.614c0 .06.026.108.06.147.003.003.003.009.006.012l6.72 6.718z" opacity=".25"></path>
  <path fill="#fff" d="M22.252 7.093c.172 0 .343.17.343.342 0 .172-.171.343-.428.343h-1.713l-1.885 2.655h2.227c.172 0 .343.171.343.342v2.056a.368.368 0 0 1-.343.343h-1.541L17.627 24.65c0 .172-.171.257-.342.257h-4.026c-.171 0-.342-.085-.342-.257l-1.713-11.476H9.748a.368.368 0 0 1-.343-.343v-1.97c0-.171.171-.342.343-.342h7.965l2.227-3.255c.085-.086.171-.171.257-.171h2.055c-.085 0 0 0 0 0z"></path>
</svg>
